Coordinates
version=1
nRows=8
nColumns=36
inDegrees=yes

Units are S.I. units (second, meters, Newtons, ...)
If the header above contains a line with 'inDegrees', this indicates whether rotational values are in degrees (yes) or radians (no).

endheader
time	pelvis_tilt	pelvis_list	pelvis_rotation	pelvis_tx	pelvis_ty	pelvis_tz	hip_flexion_r	hip_adduction_r	hip_rotation_r	knee_angle_r	knee_angle_r_beta	ankle_angle_r	subtalar_angle_r	mtp_angle_r	hip_flexion_l	hip_adduction_l	hip_rotation_l	knee_angle_l	knee_angle_l_beta	ankle_angle_l	subtalar_angle_l	mtp_angle_l	lumbar_extension	lumbar_bending	lumbar_rotation	arm_flex_r	arm_add_r	arm_rot_r	elbow_flex_r	pro_sup_r	arm_flex_l	arm_add_l	arm_rot_l	elbow_flex_l	pro_sup_l
      3.13333330	     -4.86119197	     -1.03403109	      3.46571449	      0.12021376	      0.95078743	      0.11928181	     12.25516651	     -4.44692141	     -3.92520136	      9.20666958	      0.16068670	      4.47254553	    -12.31333132	     -7.49999987	     11.60643576	     -5.40312339	    -13.18137005	      7.79615041	      0.13606849	      7.81593171	      0.91939548	     -7.49999987	     11.16020959	      0.12514391	      7.50057996	     40.87155860	     14.85506976	     68.73901081	    122.79303473	    101.50192332	     27.12589009	      7.63539320	     51.27667645	    121.62540357	     83.83142800
      3.15000000	     -4.89091251	     -1.12366843	      3.29190649	      0.12162648	      0.94944119	      0.11924361	     12.30694036	     -4.43058872	     -3.50186927	      9.17207559	      0.16008292	      4.11574722	    -12.10943873	     -7.49999987	     11.67229513	     -5.56759398	    -12.91947152	      8.06572359	      0.14077343	      7.52280050	      0.65721522	     -7.49999987	     11.51284740	      0.25532452	      7.47515925	     40.92473427	     14.54575576	     68.85012412	    123.13159074	    101.41502787	     27.10940213	      7.70644435	     51.55900126	    121.40633475	     83.84442945
      3.16666670	     -4.96167772	     -1.19543452	      3.14941715	      0.12370184	      0.95142536	      0.11948014	     12.35788280	     -4.43136537	     -3.06037704	      9.21192852	      0.16077848	      3.76591457	    -11.94607279	     -7.49999987	     11.79677905	     -5.75312903	    -12.48796861	      8.33934080	      0.14554895	      7.36062708	      0.58317834	     -7.49999987	     11.87034610	      0.40497595	      7.41969782	     40.85435887	     14.30541530	     68.88571241	    123.14029229	    101.27338095	     27.12810247	      7.84078238	     51.62423574	    121.55369779	     83.65814846
      3.18333330	     -5.00247999	     -1.22770963	      2.94829625	      0.12325444	      0.95490314	      0.11939498	     12.37829207	     -4.45253387	     -2.48453483	      9.24216735	      0.16130625	      3.60595823	    -11.54702996	     -7.49999987	     11.91662188	     -5.95189748	    -11.80292113	      8.73711426	      0.15249141	      7.19513869	      0.47509440	     -7.49999987	     12.08804031	      0.47352276	      7.29151044	     40.75137233	     14.03290695	     69.15649506	    123.14856925	     99.13727336	     27.13880094	      7.92027844	     51.90792823	    121.66275272	     81.93668265
      3.20000000	     -5.20959148	     -1.29269363	      2.72832596	      0.12334136	      0.95578381	      0.12056633	     12.63459786	     -4.43266155	     -1.75061495	      9.36972683	      0.16353258	      3.31366993	    -11.22024046	     -7.49999987	     12.33663923	     -6.20329379	    -11.13871765	      9.18963547	      0.16038940	      6.81358316	      0.18421257	     -7.49999987	     12.38246662	      0.46245724	      7.46675834	     40.92018291	     13.68870317	     69.40611924	    123.13572219	     97.64752853	     27.22723494	      8.08429290	     51.93585576	    121.77446244	     80.72879964
      3.21666670	     -5.84790720	     -1.30361369	      2.54308835	      0.12391276	      0.95783172	      0.11999100	     13.25709842	     -4.53178399	     -1.50282973	      9.46542803	      0.16520288	      3.36806697	    -10.27016754	     -7.49999987	     13.24582182	     -6.35236431	    -10.08132574	      9.88385973	      0.17250590	      6.40713798	     -0.19862505	     -7.49999987	     13.60714553	      0.44251948	      7.23619791	     40.10392071	     13.34742446	     69.20028367	    122.68075526	     95.48189844	     26.53856306	      8.02675762	     51.43160117	    121.11458960	     79.38058604
      3.23333330	     -5.53499318	     -1.31245850	      2.08558460	      0.12375201	      0.95680142	      0.12057105	     12.95120327	     -4.46705736	     -0.60203891	      9.57699385	      0.16715008	      3.74041191	     -9.73615850	     -7.49999987	     13.10152963	     -6.64121382	     -9.78311286	     10.55179889	      0.18416363	      6.53039422	     -0.06425539	     -7.49999987	     12.86168860	      0.45008799	      7.07507782	     40.51789516	     13.31252582	     69.64879004	    123.03936306	    101.70302937	     26.73219731	      7.94341863	     51.73994206	    121.33514987	     83.74585602
      3.25000000	     -5.76703813	     -1.31318642	      1.76622204	      0.12291803	      0.95265844	      0.12083700	     13.26562633	     -4.46453657	     -0.01194938	      9.79346810	      0.17092826	      4.34101567	     -9.31669472	     -7.49999987	     13.63037290	     -6.78933959	     -8.82019813	     11.29302218	      0.19710042	      6.78044461	     -0.62746619	     -7.49999987	     13.12622458	      0.47058017	      6.92497678	     40.80119314	     13.23307150	     69.85918556	    123.12524837	     98.05604315	     26.72209277	      7.86820068	     51.94906615	    121.43251642	     81.57340642
